# xmcd
#
# Track frame offsets: 
#        150
#        15329
#        34048
#        45568
#        62667
#        75591
#        95513
#        110053
#
# Disc length: 1656 seconds
#
# Revision: 0
# Processed by: cddbd v1.5.2PL0 Copyright (c) Steve Scherf et al.
# Submitted via: ExactAudioCopy v0.95b4
#
DISCID=58067608
DTITLE=Amy Winehouse - Live iTunes Festival London
DYEAR=2007
DGENRE=R&B
TTITLE0=Tears Dry On Their Own
TTITLE1=Back To Black
TTITLE2=Love Is A Loosing Game
TTITLE3=Rehab
TTITLE4=Me And Mr. Jones
TTITLE5=You Know I´m No Good
TTITLE6=He Can Only Hold Her
TTITLE7=Monkey Man
EXTD=
EXTT0=
EXTT1=
EXTT2=
EXTT3=
EXTT4=
EXTT5=
EXTT6=
EXTT7=
PLAYORDER=
